<?xml version="1.0" encoding="utf-8"?>
<!-- Generator: Adobe Illustrator 25.2.1, SVG Export Plug-In . SVG Version: 6.00 Build 0)  -->
<svg version="1.1" xmlns="http://www.w3.org/2000/svg" xmlns:xlink="http://www.w3.org/1999/xlink" x="0px" y="0px"
	 viewBox="0 0 120 120" style="enable-background:new 0 0 120 120;" xml:space="preserve">
<style type="text/css">
	.st0{fill:#1E1E1E;}
	.st1{opacity:0.65;}
	.st2{opacity:0.2037;}
	.st3{fill:#54AF54;}
	.st4{opacity:0.1583;}
	.st5{opacity:0.2407;}
	.st6{opacity:0.1879;}
	.st7{opacity:0.1092;}
	.st8{opacity:0.1318;}
	.st9{opacity:5.587348e-02;}
	.st10{opacity:8.478022e-03;}
	.st11{fill:#F2F2F2;}
	.st12{fill:#5596AD;}
	.st13{fill:#E79BFA;}
	.st14{fill:#FFFFFF;}
	.st15{fill:none;stroke:#FFFFFF;stroke-width:3;stroke-miterlimit:10;}
	.st16{fill:none;stroke:#F2F2F2;stroke-width:3;stroke-miterlimit:10;}
</style>
<g id="Criação">
</g>
<g id="MiniMIV">
	<circle class="st11" cx="60" cy="60" r="58.2"/>
	<g>
		<g>
			<path class="st3" d="M66.1,43.2c-0.4,0.1-0.9,0.1-1.3,0c-0.4-0.1-0.9-0.2-1.3-0.4c-0.8-0.3-1.7-0.7-2.5-1.1
				c-1.6-0.8-3.1-1.8-4.6-2.8c-2.9-2-5.8-4.2-8.5-6.5c-1.4-1.1-2.7-2.3-4.1-3.5c-1.3-1.2-2.7-2.4-4-3.6c-1.3-1.2-2.6-2.4-3.9-3.7
				c-0.6-0.6-1.3-1.3-1.9-1.9c-0.3-0.3-0.6-0.7-0.9-1c-0.2-0.2-0.3-0.4-0.5-0.6c-0.1-0.1-0.2-0.2-0.3-0.4c-0.1-0.1-0.1-0.2-0.2-0.4
				l0-0.1c0,0,0-0.1,0-0.2c0,0,0-0.2,0-0.3c0-0.1,0-0.2,0-0.3c0-0.1,0-0.2,0.1-0.4c0-0.1,0.1-0.3,0.3-0.5c0.1-0.2,0.3-0.3,0.5-0.4
				c0.2-0.1,0.3-0.1,0.5-0.2c0.2,0,0.2,0,0.3,0c0.1,0,0.2,0,0.2,0c0,0,0.1,0,0.1,0c0.1,0,0.1,0,0.2,0l-0.1,0c0.1,0,0.3,0.1,0.6,0.3
				c0,0,0.1,0.1,0.1,0.1c0,0,0.1,0.1,0.1,0.1c0.1,0.1,0.2,0.2,0.2,0.3c0.1,0.1,0.1,0.2,0.2,0.3c0,0.1,0.1,0.2,0.1,0.3
				c0.1,0.4,0,0.6,0,0.7c0,0.1-0.1,0.2-0.1,0.3c-0.1,0.3-0.2,0.3-0.2,0.5l-0.3,0.5c-0.2,0.3-0.4,0.7-0.5,1c-0.3,0.7-0.6,1.4-0.8,2.1
				c-0.5,1.5-0.9,3-1.2,4.5c-0.7,3.1-1.1,6.3-1.4,9.5c-0.3,3.2-0.5,6.4-0.6,9.7C30,48.7,30,51.9,30,55.2l-3.4-0.5
				c0-0.1,0-0.1,0.1-0.2c0,0,0-0.1,0.1-0.2c0-0.1,0.1-0.2,0.2-0.4c0,0,0.1-0.1,0.2-0.2c0.1-0.1,0.2-0.1,0.3-0.2
				c0.1-0.1,0.4-0.2,0.6-0.2c0.3,0,0.6,0,0.8,0.1c0.3,0.1,0.4,0.2,0.5,0.3c0.1,0.1,0.2,0.2,0.3,0.3c0.1,0.1,0.1,0.1,0.1,0.2
				c0,0.1,0.1,0.1,0.1,0.1c0.1,0.3,0.1,0.3,0.2,0.4c0,0.1,0.1,0.2,0.1,0.3l0,0.2l0.1,0.7c0.1,0.4,0.1,0.8,0.2,1.2
				c0.1,0.8,0.3,1.6,0.5,2.3c0.4,1.5,1,3,1.8,4.3c0.8,1.3,1.8,2.5,3,3.4c1.2,1,2.6,1.7,4.1,2.2c3,1,6.4,1.2,9.7,0.9
				c3.3-0.3,6.7-1,10-1.8c-1.6,0.7-3.2,1.3-4.8,1.9c-1.6,0.5-3.3,1-5,1.3c-3.4,0.7-7,0.9-10.6,0c-1.8-0.4-3.5-1.2-5-2.3
				c-1.5-1.1-2.9-2.5-3.9-4c-1-1.6-1.8-3.3-2.3-5c-0.3-0.9-0.5-1.8-0.7-2.6c-0.1-0.4-0.2-0.9-0.2-1.3l-0.1-0.6l0-0.1c0,0,0-0.1,0,0
				c0,0,0,0.1,0.1,0.3c0,0,0,0.1,0.1,0.1c0,0.1,0,0.1,0.1,0.2c0.1,0.1,0.1,0.1,0.2,0.2c0.1,0.1,0.3,0.2,0.5,0.3
				c0.2,0.1,0.6,0.1,0.8,0.1c0.2,0,0.5-0.2,0.6-0.2c0.2-0.1,0.3-0.2,0.3-0.2c0.1-0.1,0.1-0.1,0.1-0.2c0.1-0.2,0.2-0.2,0.2-0.3
				c0,0,0-0.1,0-0.1l0,0l-3.4-0.5c-0.1-1.7-0.1-3.3-0.1-5c0-1.7,0-3.3,0-5c0.1-3.3,0.2-6.6,0.6-10c0.2-1.7,0.4-3.3,0.6-5
				c0.3-1.7,0.6-3.3,1-5c0.4-1.6,0.9-3.3,1.5-4.9c0.3-0.8,0.7-1.6,1.1-2.4c0.2-0.4,0.4-0.8,0.7-1.2l0.3-0.5c0-0.1,0.1-0.2,0.1-0.1
				c0,0,0,0.1,0,0.1c0,0.1-0.1,0.2,0,0.6c0,0.1,0,0.2,0.1,0.3c0,0.1,0.1,0.2,0.2,0.3c0.1,0.1,0.1,0.2,0.2,0.2c0,0,0.1,0.1,0.1,0.1
				c0,0,0.1,0,0.1,0.1c0.3,0.2,0.4,0.2,0.5,0.2l-0.1,0c0,0,0.1,0,0.1,0c0,0,0.1,0,0.1,0c0,0,0.1,0,0.2,0c0.1,0,0.1,0,0.3,0
				c0.2,0,0.2-0.1,0.4-0.2c0.2-0.1,0.3-0.2,0.5-0.4c0.1-0.2,0.2-0.4,0.3-0.5c0-0.1,0.1-0.3,0.1-0.4c0-0.1,0-0.2,0-0.2
				c0-0.1,0-0.2,0-0.2c0-0.1,0-0.1,0-0.1l0-0.1c-0.1-0.1,0-0.1,0-0.1c0,0,0.1,0.1,0.1,0.2c0.1,0.1,0.2,0.3,0.4,0.5
				c0.3,0.3,0.5,0.6,0.8,1c0.6,0.6,1.2,1.3,1.8,1.9c1.2,1.3,2.4,2.6,3.7,3.8c2.5,2.5,5,5,7.6,7.4c2.6,2.4,5.2,4.8,7.9,7.1
				c1.4,1.1,2.7,2.2,4.2,3.2c0.7,0.5,1.5,1,2.3,1.3c0.4,0.2,0.8,0.4,1.2,0.5C65.2,43.2,65.7,43.3,66.1,43.2z"/>
			<path class="st3" d="M43.2,43.6c0.9-0.3,1.9-0.5,2.8-0.6c1-0.2,1.9-0.3,2.9-0.4c1.9-0.2,3.9-0.2,5.8-0.1c1.9,0.1,3.9,0.3,5.8,0.7
				c1.9,0.4,3.8,0.9,5.7,1.5c3.7,1.3,7.3,3.2,10.5,5.5c3.2,2.4,6,5.3,8.4,8.5l-0.2-0.2c0.4,0.4,0.7,0.7,1,1.1
				c0.3,0.4,0.6,0.7,0.9,1.1c0.6,0.7,1.2,1.5,1.7,2.3c1.1,1.6,2.1,3.2,2.9,4.9c1.7,3.4,3,7.2,3.4,11.1c0.2,2,0.2,4-0.1,5.9
				c-0.1,1-0.3,2-0.6,2.9c-0.3,1-0.6,1.9-1,2.8c-0.8,1.8-1.7,3.6-2.9,5.1c-1.1,1.6-2.4,3-3.8,4.4l0.4-0.6c-0.3,0.9-0.8,1.8-1.5,2.5
				c-0.6,0.7-1.3,1.3-2.1,1.8c-1.5,1-3.1,1.6-4.7,2c-3.2,0.8-6.5,0.8-9.7,0.5c-6.4-0.7-12.4-3.1-17.7-6.6c-2.6-1.7-5.1-3.7-7.3-6
				c-2.2-2.2-4.2-4.7-5.9-7.3c-3.4-5.2-5.9-11-7.4-16.9c2,5.8,4.8,11.3,8.4,16.2c1.8,2.4,3.9,4.7,6.1,6.7c2.2,2,4.6,3.8,7.2,5.4
				c2.6,1.5,5.3,2.8,8.1,3.8c2.8,1,5.7,1.6,8.7,1.8c2.9,0.2,5.9,0.1,8.6-0.7c1.3-0.4,2.6-0.9,3.7-1.7c1.1-0.7,1.8-1.7,2.2-2.7
				l0.1-0.3l0.3-0.3c1.2-1.2,2.3-2.6,3.3-4c0.5-0.7,0.9-1.4,1.3-2.2c0.4-0.7,0.8-1.5,1.1-2.3c1.2-3.1,1.7-6.5,1.3-9.9
				c-0.2-1.7-0.5-3.4-1-5c-0.5-1.6-1.2-3.3-1.9-4.8c-0.8-1.6-1.7-3.1-2.6-4.6c-0.5-0.7-1-1.5-1.5-2.2c-0.3-0.3-0.5-0.7-0.8-1
				c-0.3-0.3-0.6-0.7-0.8-1l-0.1-0.1l0-0.1c-1.1-1.5-2.2-3-3.5-4.3c-1.2-1.4-2.6-2.6-4-3.8c-2.8-2.4-6.1-4.3-9.5-5.7
				c-1.7-0.7-3.5-1.3-5.3-1.8c-1.8-0.5-3.7-0.9-5.5-1.1C50.8,43.3,47,43.2,43.2,43.6z"/>
			<g>
				<ellipse class="st3" cx="33.1" cy="17.2" rx="3.7" ry="3.7"/>
				<circle class="st3" cx="66" cy="43.3" r="0.5"/>
				<ellipse class="st3" cx="28.3" cy="55.7" rx="3.4" ry="3.4"/>
				<ellipse class="st3" cx="60.7" cy="68" rx="2.9" ry="2.9"/>
				<ellipse class="st3" cx="84.7" cy="60.6" rx="5.2" ry="5.2"/>
				<circle class="st3" cx="30.8" cy="69.8" r="0.6"/>
				<ellipse class="st3" cx="44.8" cy="44.1" rx="3.8" ry="3.8"/>
				<ellipse class="st3" cx="85.3" cy="99.4" rx="4.7" ry="4.7"/>
				<path class="st3" d="M36.1,75.6c2.6,2.1,5.2,4.2,8.1,5.9c2.8,1.7,5.8,3.1,8.9,4.1c3.1,1,6.3,1.4,9.6,1.5c3.3,0,6.6-0.4,9.9-1
					c-3.1,1.4-6.4,2.2-9.8,2.5c-3.4,0.3-6.9-0.1-10.2-1.1c-3.3-1-6.4-2.6-9.1-4.6C40.6,80.7,38.2,78.3,36.1,75.6z"/>
				<path class="st3" d="M66.4,59.9c0.5,0.3,0.7,0.8,0.8,1.3c0.1,0.5,0.1,0.9,0,1.3c-0.1,0.4-0.2,0.8-0.5,1.2
					c-0.3,0.4-0.6,0.7-1.1,1c-0.1-0.3-0.2-0.5-0.2-0.7c-0.1-0.2-0.1-0.4-0.1-0.6c0-0.4,0-0.8,0.1-1.2c0.1-0.4,0.2-0.7,0.3-1.1
					C65.9,60.7,66.1,60.4,66.4,59.9z"/>
				<path class="st3" d="M48.5,76c1.2,0.1,2.4,0.3,3.6,0.5l3.4,0.6c1.1,0.2,2.3,0.3,3.4,0.5c1.2,0.1,2.3,0.2,3.6,0.3
					c-1.1,0.6-2.3,1-3.6,1.2c-1.2,0.1-2.5,0.1-3.7-0.1c-1.2-0.2-2.4-0.6-3.6-1C50.6,77.4,49.5,76.8,48.5,76z"/>
				<path class="st3" d="M79.8,72.6c0.4,0.8,0.5,1.7,0.5,2.6c0.1,0.9,0,1.7-0.2,2.6c-0.2,0.8-0.4,1.7-0.8,2.5
					c-0.4,0.8-0.9,1.6-1.7,2.1c0.1-0.9,0.2-1.7,0.3-2.5c0.1-0.8,0.2-1.6,0.4-2.4c0.1-0.8,0.3-1.6,0.5-2.4
					C79.1,74.2,79.4,73.4,79.8,72.6z"/>
				<path class="st3" d="M61.7,92.5c0.9-0.4,1.7-0.6,2.6-0.7c0.9-0.2,1.7-0.3,2.6-0.3c0.9-0.1,1.7-0.1,2.5-0.1
					c0.9,0,1.7,0.1,2.6,0.1c-0.7,0.7-1.6,1-2.4,1.3c-0.9,0.3-1.8,0.4-2.6,0.5c-0.9,0.1-1.8,0-2.6-0.1C63.4,93.1,62.5,92.9,61.7,92.5
					z"/>
				<path class="st3" d="M44.6,56.2c0.3-0.3,0.6-0.5,0.8-0.6c0.3-0.1,0.5-0.1,0.8-0.1c0.2,0,0.5,0.1,0.7,0.3
					c0.2,0.2,0.4,0.4,0.6,0.8c-0.3,0.3-0.6,0.5-0.8,0.6c-0.3,0.1-0.5,0.1-0.7,0.1c-0.2,0-0.5-0.1-0.7-0.3
					C45,56.8,44.8,56.6,44.6,56.2z"/>
				<path class="st3" d="M52,45.3c0.4,0.2,0.6,0.4,0.8,0.5c0.1,0.2,0.2,0.4,0.2,0.6c0,0.2,0,0.4-0.2,0.6c-0.1,0.2-0.3,0.4-0.7,0.6
					c-0.4-0.2-0.6-0.4-0.8-0.5c-0.1-0.2-0.2-0.4-0.2-0.6c0-0.2,0-0.4,0.2-0.6C51.5,45.8,51.7,45.6,52,45.3z"/>
				<path class="st3" d="M33.1,17.2c2.7,7.7,6.3,15,10.3,22.1c1,1.8,2,3.5,3.1,5.3c1.1,1.7,2.1,3.5,3.2,5.2l1.6,2.6
					c0.5,0.9,1.1,1.7,1.7,2.6c1.1,1.7,2.2,3.4,3.4,5.1c2.3,3.4,4.6,6.7,7,10l3.6,5c1.2,1.6,2.4,3.3,3.6,4.9
					c4.9,6.5,9.8,13,14.7,19.6c-5.5-6.1-10.8-12.3-15.8-18.7c-1.3-1.6-2.5-3.2-3.8-4.8L62,71c-2.4-3.3-4.8-6.6-7.1-10
					c-1.2-1.7-2.3-3.4-3.4-5.1c-1.1-1.7-2.2-3.4-3.3-5.2c-1.1-1.7-2.1-3.5-3.1-5.3c-1.1-1.8-2-3.6-3-5.4
					C38.3,32.8,35,25.1,33.1,17.2z"/>
			</g>
		</g>
	</g>
</g>
</svg>
