<?xml version="1.0" encoding="utf-8"?>
<!-- Generator: Adobe Illustrator 25.2.1, SVG Export Plug-In . SVG Version: 6.00 Build 0)  -->
<svg version="1.1" xmlns="http://www.w3.org/2000/svg" xmlns:xlink="http://www.w3.org/1999/xlink" x="0px" y="0px"
	 viewBox="0 0 150 150" style="enable-background:new 0 0 150 150;" xml:space="preserve">
<style type="text/css">
	.st0{fill:#F7F6F5;}
	.st1{display:none;}
	.st2{display:inline;fill-rule:evenodd;clip-rule:evenodd;}
	.st3{display:inline;}
	.st4{fill:#FFFFFF;}
	.st5{display:inline;fill-rule:evenodd;clip-rule:evenodd;fill:#29ABE2;}
	.st6{fill:#010201;}
	.st7{fill-rule:evenodd;clip-rule:evenodd;fill:#FFFFFF;}
	.st8{fill-rule:evenodd;clip-rule:evenodd;fill:#010201;}
	.st9{fill:#FEFEFE;}
	.st10{fill-rule:evenodd;clip-rule:evenodd;}
	.st11{fill:url(#SVGID_1_);}
	.st12{fill:#29ABE2;}
	.st13{fill:#6C95AB;}
	.st14{fill:#77AD5B;}
	.st15{fill:#F2F2F2;}
	.st16{fill:#D49AF7;}
	.st17{fill:#282800;}
</style>
<g id="Background">
</g>
<g id="Graphic_Elements">
	<g>
		<path class="st16" d="M110.1,49.5c-0.8-2.1-1.8-3.6-3.4-5.2c-1.6-1.6-3.1-2.6-5.2-3.4c-1.6-0.6-4-1.4-8.4-1.6
			c-4.8-0.2-6.2-0.3-18.2-0.3c-12,0-13.5,0-18.2,0.3c-4.4,0.2-6.8,0.9-8.4,1.6c-2.1,0.8-3.6,1.8-5.2,3.4c-1.6,1.6-2.6,3.1-3.4,5.2
			c-0.6,1.6-1.4,4-1.6,8.4C38.1,62.6,38,64,38,76.1s0,13.5,0.3,18.2c0.2,4.4,0.9,6.8,1.6,8.4c0.8,2.1,1.8,3.6,3.4,5.2
			c1.6,1.6,3.1,2.6,5.2,3.4c1.6,0.6,4,1.4,8.4,1.6C61.5,113,63,113,75,113c12,0,13.5,0,18.2-0.3c4.4-0.2,6.8-0.9,8.4-1.6
			c2.1-0.8,3.6-1.8,5.2-3.4c1.6-1.6,2.6-3.1,3.4-5.2c0.6-1.6,1.4-4,1.6-8.4c0.2-4.8,0.3-6.2,0.3-18.2s0-13.5-0.3-18.2
			C111.5,53.4,110.8,51.1,110.1,49.5z M75,99.2c-12.8,0-23.1-10.4-23.1-23.1S62.2,52.9,75,52.9c12.8,0,23.1,10.4,23.1,23.1
			S87.8,99.2,75,99.2z M99.1,57.4c-3,0-5.4-2.4-5.4-5.4c0-3,2.4-5.4,5.4-5.4c3,0,5.4,2.4,5.4,5.4C104.5,55,102,57.4,99.1,57.4z"/>
		<path class="st16" d="M75,4.5C35.5,4.5,3.4,36.5,3.4,76.1s32.1,71.6,71.6,71.6s71.6-32.1,71.6-71.6S114.5,4.5,75,4.5z M119.8,94.6
			c-0.2,4.8-1,8.1-2.1,10.9c-1.2,3-2.7,5.5-5.2,8c-2.5,2.5-5,4-8,5.2c-2.9,1.1-6.1,1.9-10.9,2.1c-4.8,0.2-6.3,0.3-18.6,0.3
			c-12.2,0-13.8-0.1-18.6-0.3c-4.8-0.2-8.1-1-10.9-2.1c-3-1.2-5.5-2.7-8-5.2c-2.5-2.5-4-5-5.2-8c-1.1-2.9-1.9-6.1-2.1-10.9
			c-0.2-4.8-0.3-6.3-0.3-18.6c0-12.2,0.1-13.8,0.3-18.6c0.2-4.8,1-8.1,2.1-10.9c1.2-3,2.7-5.5,5.2-8c2.5-2.5,5-4,8-5.2
			c2.9-1.1,6.1-1.9,10.9-2.1C61.2,31,62.8,31,75,31c12.2,0,13.8,0.1,18.6,0.3c4.8,0.2,8.1,1,10.9,2.1c3,1.2,5.5,2.7,8,5.2
			c2.5,2.5,4,5,5.2,8c1.1,2.9,1.9,6.1,2.1,10.9c0.2,4.8,0.3,6.3,0.3,18.6S120,89.8,119.8,94.6z"/>
		<ellipse transform="matrix(0.9732 -0.2298 0.2298 0.9732 -15.4665 19.2659)" class="st16" cx="75" cy="76.1" rx="15" ry="15"/>
	</g>
</g>
</svg>
