<?xml version="1.0" encoding="utf-8"?>
<!-- Generator: Adobe Illustrator 25.2.1, SVG Export Plug-In . SVG Version: 6.00 Build 0)  -->
<svg version="1.1" xmlns="http://www.w3.org/2000/svg" xmlns:xlink="http://www.w3.org/1999/xlink" x="0px" y="0px"
	 viewBox="0 0 300 240" style="enable-background:new 0 0 300 240;" xml:space="preserve">
<style type="text/css">
	.st0{fill:#1E1E1E;}
	.st1{opacity:0.65;}
	.st2{opacity:0.2037;}
	.st3{fill:#54AF54;}
	.st4{opacity:0.1583;}
	.st5{opacity:0.2407;}
	.st6{opacity:0.1879;}
	.st7{opacity:0.1092;}
	.st8{opacity:0.1318;}
	.st9{opacity:5.587348e-02;}
	.st10{opacity:8.478022e-03;}
	.st11{fill:#F2F2F2;}
	.st12{fill:#5596AD;}
	.st13{fill:#E79BFA;}
	.st14{fill:#FFFFFF;}
	.st15{fill:none;stroke:#FFFFFF;stroke-width:3;stroke-miterlimit:10;}
	.st16{fill:none;stroke:#F2F2F2;stroke-width:3;stroke-miterlimit:10;}
</style>
<g id="Criação">
</g>
<g id="MiniMIV">
	<g>
		<g>
			<path class="st3" d="M15.1,162.9c3.1,0,6.3,0,9.4,0c3.2,0,6.3,0,9.4,0.1c3.1,0.1,6.1,0.2,8.9,0.4l-0.4,6.5h-26
				c-1.9,0-3.4,0.5-4.3,1.5c-0.9,1-1.4,2.5-1.4,4.7v38.4c0,2.2,0.5,3.8,1.4,4.8c0.9,1,2.3,1.5,4.3,1.5h26l0.4,6.4
				c-2.9,0.2-5.9,0.3-8.9,0.4c-3.1,0.1-6.2,0.1-9.4,0.1c-3.2,0-6.3,0-9.4,0c-3.8,0-6.8-1-9-3c-2.2-2-3.4-4.8-3.4-8.2v-42.3
				c0.1-3.5,1.2-6.2,3.4-8.2C8.3,163.9,11.3,162.9,15.1,162.9z M4.3,190.2h34.5v6.7H4.3V190.2z"/>
			<path class="st3" d="M74.3,180.9c1.4,0,2.9,0.1,4.6,0.2c1.7,0.1,3.4,0.3,5.2,0.7c1.8,0.3,3.4,0.7,4.9,1.3l-1,5.2
				c-2.1-0.2-4.2-0.3-6.5-0.4c-2.3-0.1-4.2-0.1-5.9-0.1c-3.6,0-6.5,0.5-8.6,1.5c-2.1,1-3.7,2.7-4.6,5.2c-0.9,2.5-1.4,6-1.4,10.4
				c0,4.4,0.5,7.9,1.4,10.4c0.9,2.5,2.5,4.3,4.6,5.3c2.1,1,5,1.5,8.6,1.5c0.9,0,2.2,0,3.7-0.1c1.5-0.1,3.1-0.2,4.8-0.3
				c1.7-0.1,3.4-0.3,4.9-0.6l0.8,5.3c-2.3,0.8-4.8,1.4-7.5,1.8c-2.7,0.4-5.4,0.6-8.1,0.6c-5.2,0-9.5-0.8-12.6-2.3
				c-3.2-1.6-5.5-4.1-6.9-7.6c-1.4-3.5-2.1-8.2-2.1-14.1c0-5.9,0.7-10.6,2.2-14.1c1.4-3.5,3.7-6,6.9-7.5
				C64.8,181.7,69.1,180.9,74.3,180.9z"/>
			<path class="st3" d="M119.2,180.9c5.2,0,9.4,0.8,12.6,2.3c3.2,1.6,5.4,4.1,6.8,7.6c1.4,3.5,2.1,8.2,2.1,14s-0.7,10.5-2.1,14
				c-1.4,3.5-3.6,6.1-6.8,7.6c-3.2,1.6-7.4,2.3-12.6,2.3c-5.2,0-9.4-0.8-12.5-2.3c-3.2-1.6-5.4-4.1-6.8-7.6c-1.4-3.5-2.1-8.2-2.1-14
				s0.7-10.5,2.1-14c1.4-3.5,3.7-6.1,6.8-7.6C109.8,181.7,114,180.9,119.2,180.9z M119.2,187.7c-3.3,0-5.9,0.5-7.8,1.5
				c-1.9,1-3.3,2.8-4.1,5.3c-0.8,2.5-1.2,6-1.2,10.4c0,4.4,0.4,7.9,1.2,10.4c0.8,2.5,2.2,4.3,4.1,5.3c1.9,1,4.5,1.5,7.8,1.5
				c3.3,0,5.9-0.5,7.9-1.5c1.9-1,3.3-2.8,4.1-5.3c0.8-2.5,1.2-6,1.2-10.4c0-4.4-0.4-7.9-1.2-10.4c-0.8-2.5-2.2-4.3-4.1-5.3
				C125.1,188.2,122.5,187.7,119.2,187.7z"/>
			<path class="st13" d="M161.1,162.1l-0.1,53c0,2,0.5,3.5,1.6,4.5c1.1,1,2.6,1.5,4.6,1.5h4.4l0.9,6.1c-0.6,0.3-1.4,0.5-2.4,0.7
				c-1,0.2-2.1,0.3-3.2,0.4c-1.1,0.1-2,0.1-2.8,0.1c-3.4,0-6.1-1-8.1-3c-2-2-3-4.9-3-8.6v-54.8H161.1z"/>
			<path class="st13" d="M187.1,162.6c1.6,0,2.4,0.8,2.4,2.4v5.3c0,1.6-0.8,2.4-2.4,2.4h-3.7c-1.6,0-2.4-0.8-2.4-2.4v-5.3
				c0-1.6,0.8-2.4,2.4-2.4H187.1z M189.2,182v45.6h-7.9V182H189.2z"/>
			<path class="st13" d="M210.9,182l0.7,8.7l0.6,1.4v35.5h-8V182H210.9z M231.9,180.9c8.2,0,12.4,4.2,12.4,12.6v34.2h-8v-31.9
				c0-3.1-0.5-5.2-1.5-6.3c-1-1.2-2.7-1.7-5.1-1.7c-2.8,0-5.6,0.7-8.4,2.1c-2.8,1.4-6.2,3.2-10,5.6l-0.4-5.7
				c3.6-2.7,7.1-4.9,10.6-6.4C225,181.7,228.4,180.9,231.9,180.9z"/>
			<path class="st13" d="M266.5,162.1l0.1,29.1c0,1.9-0.1,3.7-0.2,5.4c-0.2,1.7-0.4,3.4-0.7,5.2c0.3,1.7,0.5,3.5,0.7,5.2
				c0.1,1.7,0.2,3.4,0.2,5.1v15.6h-8v-65.6H266.5z M274.3,199v5.8h-10.6V199H274.3z M295.9,182l-14.3,16.8c-0.4,0.6-1,1.1-1.6,1.7
				c-0.6,0.6-1.2,1-1.6,1.4v0.2c0.4,0.3,1,0.8,1.6,1.5c0.6,0.7,1.2,1.4,1.6,2.1l15.8,21.9h-9.3L270,201.5l16.6-19.5H295.9z"/>
		</g>
		<g>
			<g>
				<path class="st3" d="M158.8,53.8c-0.6,0.2-1.3,0.1-1.9,0c-0.6-0.1-1.3-0.3-1.9-0.5c-1.2-0.4-2.4-1-3.5-1.6
					c-2.3-1.2-4.4-2.6-6.6-4c-4.2-2.9-8.3-6-12.3-9.3c-2-1.6-3.9-3.3-5.9-5c-1.9-1.7-3.8-3.4-5.7-5.1c-1.9-1.7-3.8-3.5-5.6-5.3
					c-0.9-0.9-1.8-1.8-2.7-2.8c-0.5-0.5-0.9-0.9-1.4-1.5c-0.2-0.3-0.5-0.5-0.7-0.8c-0.1-0.2-0.2-0.3-0.4-0.5
					c-0.1-0.1-0.2-0.2-0.3-0.5l-0.1-0.2c0,0,0-0.1-0.1-0.2c0-0.1-0.1-0.2-0.1-0.4c0-0.1,0-0.2,0-0.4c0-0.1,0-0.3,0.1-0.5
					c0.1-0.2,0.2-0.5,0.4-0.7c0.2-0.3,0.4-0.4,0.7-0.6c0.3-0.2,0.4-0.2,0.7-0.2c0.2,0,0.3,0,0.4,0c0.1,0,0.2,0,0.3,0
					c0.1,0,0.1,0,0.2,0c0.1,0,0.2,0,0.3,0.1l-0.2-0.1c0.2,0,0.5,0.1,0.9,0.4c0.1,0,0.1,0.1,0.2,0.1c0.1,0,0.1,0.1,0.2,0.2
					c0.1,0.1,0.2,0.2,0.3,0.4c0.1,0.1,0.2,0.3,0.2,0.5c0.1,0.2,0.1,0.3,0.1,0.5c0.1,0.6,0,0.8,0,1c-0.1,0.2-0.1,0.3-0.1,0.4
					c-0.2,0.4-0.2,0.5-0.3,0.7l-0.4,0.8c-0.3,0.5-0.5,1-0.7,1.4c-0.5,1-0.9,2-1.2,3c-0.7,2.1-1.3,4.3-1.8,6.5c-1,4.5-1.5,9-2,13.6
					c-0.4,4.6-0.7,9.3-0.8,13.9c-0.1,4.7-0.1,9.3-0.1,14l-4.9-0.7c0-0.1,0.1-0.2,0.1-0.3c0-0.1,0.1-0.1,0.1-0.2
					c0.1-0.1,0.1-0.2,0.3-0.5c0,0,0.1-0.1,0.2-0.2c0.1-0.1,0.2-0.2,0.5-0.3c0.1-0.1,0.6-0.3,0.9-0.3c0.4-0.1,0.9,0,1.2,0.1
					c0.4,0.1,0.6,0.3,0.8,0.4c0.2,0.2,0.3,0.2,0.4,0.4c0.1,0.1,0.1,0.2,0.2,0.2c0.1,0.1,0.1,0.1,0.1,0.2c0.2,0.4,0.2,0.5,0.2,0.6
					c0.1,0.2,0.1,0.3,0.1,0.4l0,0.3l0.1,0.9c0.1,0.6,0.2,1.2,0.2,1.7c0.2,1.1,0.4,2.2,0.7,3.3c0.6,2.2,1.4,4.3,2.5,6.2
					c1.1,1.9,2.6,3.6,4.3,5c1.7,1.4,3.7,2.4,5.8,3.2c4.3,1.5,9.1,1.7,13.9,1.3c4.8-0.4,9.6-1.4,14.3-2.6c-2.2,1-4.5,1.9-6.9,2.7
					c-2.3,0.8-4.7,1.4-7.2,1.9c-4.9,0.9-10.1,1.3-15.2,0c-2.5-0.6-5-1.7-7.2-3.3c-2.2-1.5-4.1-3.5-5.6-5.8c-1.5-2.2-2.6-4.7-3.4-7.2
					c-0.4-1.3-0.7-2.5-0.9-3.8c-0.1-0.6-0.2-1.3-0.3-1.9l-0.1-0.9l0-0.2c0,0,0-0.1,0,0c0,0,0,0.1,0.2,0.4c0,0,0,0.1,0.1,0.2
					c0,0.1,0.1,0.1,0.2,0.2c0.1,0.1,0.1,0.2,0.3,0.3c0.2,0.1,0.4,0.3,0.7,0.4c0.3,0.1,0.8,0.2,1.2,0.1c0.3,0,0.7-0.2,0.9-0.3
					c0.2-0.1,0.4-0.3,0.4-0.3c0.1-0.1,0.2-0.2,0.2-0.2c0.2-0.3,0.2-0.3,0.3-0.4c0-0.1,0-0.1,0.1-0.1l0-0.1l-4.9-0.7
					c-0.1-2.4-0.2-4.7-0.2-7.1c0-2.4,0-4.8,0-7.1c0.1-4.8,0.3-9.5,0.8-14.3c0.2-2.4,0.5-4.8,0.9-7.1c0.4-2.4,0.8-4.8,1.4-7.1
					c0.6-2.4,1.3-4.7,2.2-7c0.5-1.2,1-2.3,1.6-3.4c0.3-0.6,0.6-1.1,0.9-1.7l0.5-0.8c0.1-0.1,0.1-0.2,0.1-0.1c0,0,0,0.1-0.1,0.2
					c0,0.1-0.1,0.3,0,0.8c0,0.1,0.1,0.3,0.1,0.4c0.1,0.1,0.1,0.3,0.2,0.4c0.1,0.1,0.2,0.3,0.3,0.4c0.1,0,0.1,0.1,0.2,0.1
					c0,0,0.1,0.1,0.1,0.1c0.4,0.2,0.6,0.3,0.7,0.3l-0.2-0.1c0.1,0,0.1,0,0.2,0.1c0.1,0,0.1,0,0.2,0c0,0,0.2,0,0.3,0
					c0.1,0,0.2,0,0.4,0c0.2-0.1,0.3-0.1,0.6-0.2c0.3-0.1,0.5-0.3,0.7-0.6c0.2-0.3,0.3-0.5,0.4-0.7c0.1-0.2,0.1-0.4,0.1-0.5
					c0-0.1,0-0.3,0-0.3c0-0.1,0-0.3-0.1-0.3c0-0.1,0-0.1-0.1-0.2l0-0.1c-0.1-0.2-0.1-0.1-0.1-0.1c0,0,0.1,0.1,0.2,0.2
					c0.2,0.2,0.3,0.4,0.5,0.7c0.4,0.5,0.8,0.9,1.2,1.4c0.8,0.9,1.7,1.9,2.5,2.8c1.7,1.8,3.5,3.7,5.3,5.5c3.6,3.6,7.2,7.2,10.9,10.7
					c3.7,3.5,7.4,6.9,11.4,10.1c2,1.6,3.9,3.2,6,4.6c1.1,0.7,2.1,1.4,3.3,1.9c0.6,0.3,1.1,0.5,1.7,0.7
					C157.5,53.8,158.2,53.9,158.8,53.8z"/>
				<path class="st3" d="M125.8,54.4c1.3-0.4,2.7-0.7,4.1-0.9c1.4-0.2,2.7-0.4,4.1-0.5c2.8-0.2,5.6-0.3,8.4-0.2
					c2.8,0.1,5.6,0.4,8.4,0.9c2.8,0.5,5.5,1.2,8.2,2.2c5.4,1.8,10.5,4.6,15.1,8c4.6,3.4,8.6,7.6,12,12.1l-0.2-0.3
					c0.5,0.6,1,1.1,1.4,1.6c0.5,0.5,0.9,1.1,1.3,1.6c0.9,1.1,1.7,2.2,2.5,3.3c1.6,2.2,3,4.6,4.2,7.1c2.5,4.9,4.3,10.3,4.9,15.9
					c0.3,2.8,0.3,5.7-0.1,8.5c-0.2,1.4-0.5,2.8-0.9,4.2c-0.4,1.4-0.8,2.7-1.4,4c-1.1,2.6-2.5,5.1-4.1,7.4c-1.6,2.3-3.5,4.4-5.5,6.3
					l0.6-0.9c-0.5,1.3-1.2,2.5-2.1,3.6c-0.9,1-1.9,1.9-2.9,2.6c-2.1,1.4-4.4,2.3-6.8,2.9c-4.7,1.2-9.4,1.2-13.9,0.7
					c-9.2-1.1-17.8-4.5-25.4-9.4c-3.8-2.5-7.3-5.3-10.5-8.5c-3.2-3.2-6-6.7-8.5-10.4c-4.9-7.5-8.4-15.8-10.6-24.3
					c2.9,8.3,6.8,16.3,12.1,23.3c2.6,3.5,5.5,6.7,8.7,9.6c3.2,2.9,6.7,5.5,10.4,7.7c3.7,2.2,7.6,4,11.7,5.4c4,1.4,8.2,2.3,12.5,2.7
					c4.2,0.3,8.5,0.1,12.4-1c1.9-0.5,3.8-1.3,5.3-2.4c1.5-1.1,2.7-2.4,3.2-3.9l0.2-0.5l0.4-0.4c1.8-1.8,3.4-3.7,4.8-5.7
					c0.7-1,1.3-2.1,1.9-3.1c0.6-1.1,1.1-2.2,1.5-3.3c1.8-4.5,2.4-9.4,1.9-14.2c-0.3-2.4-0.8-4.8-1.5-7.2c-0.7-2.4-1.7-4.7-2.8-6.9
					c-1.1-2.3-2.4-4.4-3.8-6.5c-0.7-1.1-1.4-2.1-2.2-3.1c-0.4-0.5-0.8-1-1.2-1.5c-0.4-0.5-0.8-1-1.2-1.4l-0.1-0.2l-0.1-0.1
					c-1.5-2.2-3.2-4.2-5-6.2c-1.8-2-3.7-3.8-5.7-5.5c-4.1-3.4-8.7-6.1-13.6-8.2c-2.5-1-5-1.9-7.6-2.6c-2.6-0.7-5.3-1.3-7.9-1.6
					C136.8,53.9,131.3,53.7,125.8,54.4z"/>
				<g>
					<ellipse class="st3" cx="111.4" cy="16.5" rx="5.4" ry="5.4"/>
					<circle class="st3" cx="158.6" cy="53.9" r="0.8"/>
					<ellipse class="st3" cx="104.5" cy="71.7" rx="4.8" ry="4.8"/>
					<ellipse class="st3" cx="151" cy="89.4" rx="4.1" ry="4.1"/>
					<ellipse class="st3" cx="185.4" cy="78.8" rx="7.5" ry="7.5"/>
					<circle class="st3" cx="108.1" cy="92" r="0.9"/>
					<ellipse class="st3" cx="128.2" cy="55.1" rx="5.4" ry="5.4"/>
					<ellipse class="st3" cx="186.3" cy="134.5" rx="6.7" ry="6.7"/>
					<path class="st3" d="M115.7,100.4c3.8,3.1,7.5,6,11.6,8.4c4,2.4,8.3,4.5,12.7,5.8c4.5,1.4,9.1,2.1,13.8,2.1
						c4.7,0.1,9.4-0.5,14.2-1.5c-4.4,2-9.2,3.2-14.1,3.5c-4.9,0.4-9.9-0.2-14.6-1.6c-4.7-1.4-9.2-3.7-13.1-6.6
						C122.1,107.6,118.6,104.2,115.7,100.4z"/>
					<path class="st3" d="M159.2,77.8c0.7,0.5,0.9,1.2,1.1,1.8c0.2,0.6,0.2,1.3,0,1.9c-0.1,0.6-0.4,1.2-0.7,1.7
						c-0.4,0.5-0.8,1-1.5,1.4c-0.2-0.4-0.3-0.7-0.3-1c-0.1-0.3-0.1-0.6-0.1-0.9c0-0.6,0-1.1,0.1-1.7c0.1-0.5,0.3-1,0.5-1.6
						C158.5,79,158.8,78.5,159.2,77.8z"/>
					<path class="st3" d="M133.5,100.9c1.8,0.2,3.5,0.5,5.1,0.8l4.9,0.9c1.6,0.3,3.3,0.5,4.9,0.7c1.7,0.2,3.3,0.3,5.1,0.4
						c-1.5,0.9-3.3,1.4-5.1,1.7c-1.8,0.2-3.6,0.1-5.4-0.2c-1.8-0.3-3.5-0.8-5.1-1.5C136.4,102.9,134.9,102.1,133.5,100.9z"/>
					<path class="st3" d="M178.5,96c0.5,1.2,0.7,2.5,0.8,3.7c0.1,1.2,0,2.5-0.2,3.7c-0.2,1.2-0.6,2.4-1.1,3.6
						c-0.6,1.1-1.3,2.3-2.5,3c0.2-1.3,0.3-2.4,0.5-3.6c0.2-1.1,0.3-2.3,0.5-3.4c0.2-1.1,0.5-2.3,0.8-3.4
						C177.5,98.3,177.9,97.2,178.5,96z"/>
					<path class="st3" d="M152.4,124.6c1.3-0.5,2.5-0.8,3.7-1c1.2-0.2,2.5-0.4,3.7-0.4c1.2-0.1,2.4-0.1,3.7-0.1
						c1.2,0,2.4,0.1,3.8,0.2c-1,1-2.3,1.5-3.5,1.9c-1.2,0.4-2.5,0.6-3.8,0.7c-1.3,0.1-2.5,0-3.8-0.1
						C154.9,125.4,153.7,125.1,152.4,124.6z"/>
					<path class="st3" d="M127.9,72.4c0.4-0.5,0.8-0.7,1.2-0.9c0.4-0.1,0.7-0.2,1.1-0.1c0.3,0,0.7,0.2,1,0.4
						c0.3,0.3,0.6,0.6,0.9,1.2c-0.4,0.5-0.8,0.7-1.2,0.9c-0.4,0.1-0.7,0.2-1.1,0.1c-0.3,0-0.7-0.2-1-0.4
						C128.4,73.4,128.1,73,127.9,72.4z"/>
					<path class="st3" d="M138.5,56.9c0.6,0.2,0.9,0.5,1.1,0.8c0.2,0.3,0.3,0.5,0.3,0.8c0,0.3,0,0.6-0.2,0.9c-0.2,0.3-0.4,0.6-1,0.9
						c-0.6-0.2-0.9-0.5-1.1-0.8c-0.2-0.3-0.3-0.5-0.3-0.8c0-0.3,0.1-0.6,0.2-0.9C137.8,57.5,138,57.2,138.5,56.9z"/>
					<path class="st3" d="M111.4,16.5c3.8,11.1,9,21.6,14.8,31.7c1.5,2.5,2.9,5.1,4.4,7.5c1.5,2.5,3,5,4.6,7.4l2.3,3.7
						c0.8,1.2,1.6,2.4,2.4,3.7c1.6,2.4,3.2,4.9,4.9,7.3c3.3,4.9,6.6,9.6,10,14.4l5.1,7.1c1.7,2.3,3.5,4.7,5.2,7.1
						c7,9.4,14.1,18.7,21.1,28.1c-7.9-8.7-15.4-17.7-22.7-26.8c-1.8-2.3-3.6-4.6-5.4-6.9l-5.3-7c-3.5-4.7-6.9-9.5-10.2-14.4
						c-1.7-2.4-3.3-4.9-4.9-7.3c-1.6-2.4-3.2-4.9-4.7-7.5c-1.6-2.5-3-5-4.5-7.6c-1.5-2.5-2.9-5.1-4.2-7.7
						C118.8,38.8,114.1,27.9,111.4,16.5z"/>
				</g>
			</g>
		</g>
	</g>
</g>
</svg>
