<?xml version="1.0" encoding="utf-8"?>
<!-- Generator: Adobe Illustrator 25.2.1, SVG Export Plug-In . SVG Version: 6.00 Build 0)  -->
<svg version="1.1" xmlns="http://www.w3.org/2000/svg" xmlns:xlink="http://www.w3.org/1999/xlink" x="0px" y="0px"
	 viewBox="0 0 300 117.2" style="enable-background:new 0 0 300 117.2;" xml:space="preserve">
<style type="text/css">
	.st0{fill:#1E1E1E;}
	.st1{opacity:0.65;}
	.st2{opacity:0.2037;}
	.st3{fill:#54AF54;}
	.st4{opacity:0.1583;}
	.st5{opacity:0.2407;}
	.st6{opacity:0.1879;}
	.st7{opacity:0.1092;}
	.st8{opacity:0.1318;}
	.st9{opacity:5.587348e-02;}
	.st10{opacity:8.478022e-03;}
	.st11{fill:#F2F2F2;}
	.st12{fill:#5596AD;}
	.st13{fill:#E79BFA;}
	.st14{fill:#FFFFFF;}
	.st15{fill:none;stroke:#FFFFFF;stroke-width:3;stroke-miterlimit:10;}
	.st16{fill:none;stroke:#F2F2F2;stroke-width:3;stroke-miterlimit:10;}
</style>
<g id="Criação">
</g>
<g id="MiniMIV">
	<g>
		<g>
			<path class="st3" d="M53.6,39.7c-0.5,0.1-1,0.1-1.5,0c-0.5-0.1-1-0.2-1.5-0.4c-1-0.3-1.9-0.8-2.8-1.2c-1.8-1-3.5-2-5.2-3.2
				c-3.3-2.3-6.5-4.7-9.6-7.3c-1.6-1.3-3.1-2.6-4.6-3.9c-1.5-1.3-3-2.7-4.5-4c-1.5-1.4-2.9-2.7-4.4-4.2c-0.7-0.7-1.4-1.4-2.1-2.2
				c-0.4-0.4-0.7-0.7-1.1-1.1c-0.2-0.2-0.4-0.4-0.5-0.6c-0.1-0.1-0.2-0.2-0.3-0.4c-0.1-0.1-0.1-0.2-0.2-0.4l0-0.1c0,0,0-0.1-0.1-0.2
				c0,0,0-0.2-0.1-0.3c0-0.1,0-0.2,0-0.3c0-0.1,0-0.3,0.1-0.4c0-0.1,0.1-0.4,0.3-0.6c0.2-0.2,0.3-0.3,0.5-0.5
				c0.2-0.1,0.3-0.1,0.5-0.2c0.2,0,0.2,0,0.3,0c0.1,0,0.2,0,0.2,0c0.1,0,0.1,0,0.2,0c0.1,0,0.1,0,0.2,0.1l-0.2,0
				c0.2,0,0.4,0.1,0.7,0.3c0,0,0.1,0.1,0.1,0.1c0,0,0.1,0.1,0.1,0.1c0.1,0.1,0.2,0.2,0.3,0.3c0.1,0.1,0.1,0.2,0.2,0.4
				c0,0.1,0.1,0.2,0.1,0.4c0.1,0.4,0,0.6,0,0.8c0,0.2-0.1,0.2-0.1,0.3c-0.1,0.3-0.2,0.4-0.3,0.5L18.2,12c-0.2,0.4-0.4,0.7-0.6,1.1
				c-0.4,0.8-0.7,1.6-1,2.4c-0.6,1.6-1,3.4-1.4,5.1c-0.8,3.5-1.2,7.1-1.6,10.7c-0.3,3.6-0.5,7.3-0.6,10.9c-0.1,3.6-0.1,7.3-0.1,11
				l-3.8-0.5c0-0.1,0-0.1,0.1-0.2c0-0.1,0-0.1,0.1-0.2c0.1-0.1,0.1-0.2,0.3-0.4c0,0,0.1-0.1,0.2-0.2c0.1-0.1,0.2-0.2,0.4-0.3
				c0.1-0.1,0.4-0.2,0.7-0.3c0.3-0.1,0.7,0,0.9,0.1c0.3,0.1,0.5,0.2,0.6,0.3c0.2,0.1,0.2,0.2,0.3,0.3c0.1,0.1,0.1,0.1,0.1,0.2
				c0,0.1,0.1,0.1,0.1,0.1c0.1,0.3,0.2,0.4,0.2,0.5c0,0.2,0.1,0.3,0.1,0.3l0,0.2l0.1,0.7c0.1,0.5,0.1,0.9,0.2,1.4
				c0.1,0.9,0.3,1.8,0.5,2.6c0.4,1.7,1.1,3.3,2,4.8c0.9,1.5,2,2.8,3.3,3.9c1.3,1.1,2.9,1.9,4.6,2.5c3.4,1.1,7.2,1.3,10.9,1
				c3.8-0.3,7.5-1.1,11.2-2c-1.8,0.8-3.5,1.5-5.4,2.1c-1.8,0.6-3.7,1.1-5.6,1.5c-3.8,0.7-7.9,1-11.9,0c-2-0.5-3.9-1.4-5.7-2.6
				c-1.7-1.2-3.2-2.8-4.4-4.5c-1.2-1.7-2-3.7-2.6-5.6c-0.3-1-0.6-2-0.7-3c-0.1-0.5-0.2-1-0.3-1.5l-0.1-0.7l0-0.1c0,0,0-0.1,0,0
				c0,0,0,0.1,0.1,0.3c0,0,0,0.1,0.1,0.1c0,0.1,0.1,0.1,0.1,0.2c0.1,0.1,0.1,0.1,0.3,0.3c0.1,0.1,0.3,0.2,0.6,0.3
				c0.2,0.1,0.6,0.1,0.9,0.1c0.3,0,0.6-0.2,0.7-0.2c0.2-0.1,0.3-0.2,0.3-0.3c0.1-0.1,0.1-0.1,0.2-0.2c0.2-0.2,0.2-0.3,0.2-0.3
				c0,0,0-0.1,0-0.1l0,0l-3.8-0.5c-0.1-1.9-0.1-3.7-0.1-5.6c0-1.9,0-3.7,0-5.6c0.1-3.7,0.3-7.5,0.6-11.2c0.2-1.9,0.4-3.7,0.7-5.6
				c0.3-1.9,0.6-3.7,1.1-5.6c0.5-1.9,1-3.7,1.7-5.5c0.4-0.9,0.8-1.8,1.2-2.7c0.2-0.4,0.5-0.9,0.7-1.3l0.4-0.6c0-0.1,0.1-0.2,0.1-0.1
				c0,0,0,0.1-0.1,0.2c0,0.1-0.1,0.2,0,0.6c0,0.1,0,0.2,0.1,0.3c0,0.1,0.1,0.2,0.2,0.3c0.1,0.1,0.2,0.2,0.2,0.3c0,0,0.1,0.1,0.1,0.1
				c0,0,0.1,0.1,0.1,0.1c0.3,0.2,0.4,0.2,0.5,0.2l-0.2,0c0.1,0,0.1,0,0.2,0c0,0,0.1,0,0.1,0c0,0,0.1,0,0.2,0c0.1,0,0.1,0,0.3,0
				c0.2,0,0.3-0.1,0.5-0.2c0.2-0.1,0.4-0.3,0.5-0.5c0.2-0.2,0.2-0.4,0.3-0.5c0.1-0.2,0.1-0.3,0.1-0.4c0-0.1,0-0.2,0-0.3
				c0-0.1,0-0.2,0-0.3c0-0.1,0-0.1,0-0.1l0-0.1c-0.1-0.1-0.1-0.1-0.1-0.1c0,0,0.1,0.1,0.1,0.2c0.1,0.2,0.3,0.3,0.4,0.5
				c0.3,0.4,0.6,0.7,0.9,1.1c0.6,0.7,1.3,1.5,2,2.2c1.4,1.4,2.7,2.9,4.1,4.3c2.8,2.8,5.6,5.6,8.5,8.4c2.9,2.7,5.8,5.4,8.9,7.9
				c1.5,1.3,3.1,2.5,4.7,3.6c0.8,0.5,1.7,1.1,2.5,1.5c0.4,0.2,0.9,0.4,1.4,0.6C52.6,39.7,53.1,39.8,53.6,39.7z"/>
			<path class="st3" d="M27.8,40.2c1-0.3,2.1-0.5,3.2-0.7c1.1-0.2,2.2-0.3,3.2-0.4c2.2-0.2,4.4-0.3,6.6-0.2c2.2,0.1,4.4,0.3,6.6,0.7
				c2.2,0.4,4.3,1,6.4,1.7c4.2,1.4,8.2,3.6,11.8,6.2c3.6,2.7,6.8,5.9,9.4,9.5l-0.2-0.2c0.4,0.4,0.8,0.8,1.1,1.2
				c0.4,0.4,0.7,0.8,1,1.2c0.7,0.8,1.3,1.7,1.9,2.6c1.2,1.8,2.3,3.6,3.3,5.5c2,3.8,3.4,8,3.8,12.5c0.2,2.2,0.2,4.4-0.1,6.7
				c-0.1,1.1-0.4,2.2-0.7,3.3C84.9,91,84.6,92,84.1,93c-0.8,2.1-2,4-3.2,5.8c-1.3,1.8-2.7,3.4-4.3,4.9l0.5-0.7c-0.4,1-0.9,2-1.6,2.8
				c-0.7,0.8-1.5,1.5-2.3,2c-1.7,1.1-3.5,1.8-5.3,2.3c-3.6,0.9-7.3,1-10.9,0.6c-7.2-0.8-14-3.5-19.9-7.4c-3-1.9-5.7-4.2-8.2-6.7
				c-2.5-2.5-4.7-5.3-6.6-8.2c-3.9-5.8-6.6-12.4-8.3-19.1c2.2,6.5,5.4,12.8,9.5,18.2c2,2.7,4.3,5.3,6.8,7.5c2.5,2.3,5.2,4.3,8.1,6.1
				c2.9,1.7,6,3.1,9.1,4.2c3.2,1.1,6.5,1.8,9.8,2.1c3.3,0.3,6.6,0.1,9.7-0.8c1.5-0.4,3-1,4.1-1.9c1.2-0.8,2.1-1.9,2.5-3.1l0.1-0.4
				l0.3-0.3c1.4-1.4,2.6-2.9,3.7-4.5c0.5-0.8,1-1.6,1.5-2.5c0.5-0.8,0.9-1.7,1.2-2.6c1.4-3.5,1.9-7.4,1.5-11.2
				c-0.2-1.9-0.6-3.8-1.2-5.6c-0.6-1.9-1.3-3.7-2.2-5.4c-0.9-1.8-1.9-3.5-3-5.1c-0.5-0.8-1.1-1.6-1.7-2.4c-0.3-0.4-0.6-0.8-0.9-1.2
				c-0.3-0.4-0.6-0.8-0.9-1.1l-0.1-0.1l-0.1-0.1c-1.2-1.7-2.5-3.3-3.9-4.9c-1.4-1.5-2.9-3-4.5-4.3c-3.2-2.7-6.8-4.8-10.7-6.5
				c-1.9-0.8-3.9-1.5-6-2c-2-0.6-4.1-1-6.2-1.3C36.4,39.8,32.1,39.7,27.8,40.2z"/>
			<g>
				<ellipse class="st3" cx="16.5" cy="10.5" rx="4.2" ry="4.2"/>
				<circle class="st3" cx="53.4" cy="39.8" r="0.6"/>
				<ellipse class="st3" cx="11" cy="53.7" rx="3.8" ry="3.8"/>
				<ellipse class="st3" cx="47.5" cy="67.6" rx="3.2" ry="3.2"/>
				<ellipse class="st3" cx="74.5" cy="59.3" rx="5.9" ry="5.9"/>
				<circle class="st3" cx="13.9" cy="69.6" r="0.7"/>
				<ellipse class="st3" cx="29.7" cy="40.7" rx="4.3" ry="4.2"/>
				<ellipse class="st3" cx="75.2" cy="102.9" rx="5.3" ry="5.3"/>
				<path class="st3" d="M19.8,76.2c2.9,2.4,5.9,4.7,9.1,6.6c3.2,1.9,6.5,3.5,10,4.6C42.4,88.4,46,89,49.7,89
					c3.7,0,7.4-0.4,11.1-1.1c-3.5,1.5-7.2,2.5-11.1,2.8c-3.8,0.3-7.8-0.2-11.5-1.3c-3.7-1.1-7.2-2.9-10.3-5.2
					C24.9,81.9,22.1,79.2,19.8,76.2z"/>
				<path class="st3" d="M53.9,58.5c0.5,0.4,0.7,0.9,0.9,1.4c0.1,0.5,0.1,1,0,1.5c-0.1,0.5-0.3,0.9-0.6,1.4
					c-0.3,0.4-0.6,0.8-1.2,1.1c-0.1-0.3-0.2-0.6-0.3-0.8c-0.1-0.3-0.1-0.5-0.1-0.7c0-0.5,0-0.9,0.1-1.3c0.1-0.4,0.2-0.8,0.4-1.2
					C53.4,59.4,53.6,59.1,53.9,58.5z"/>
				<path class="st3" d="M33.8,76.6c1.4,0.1,2.7,0.4,4,0.6l3.9,0.7c1.3,0.2,2.6,0.4,3.9,0.5c1.3,0.1,2.6,0.2,4,0.3
					c-1.2,0.7-2.6,1.1-4,1.3c-1.4,0.1-2.8,0.1-4.2-0.1c-1.4-0.2-2.7-0.6-4-1.2C36.1,78.2,34.9,77.5,33.8,76.6z"/>
				<path class="st3" d="M69,72.8c0.4,1,0.6,1.9,0.6,2.9c0.1,1,0,1.9-0.2,2.9c-0.2,1-0.4,1.9-0.9,2.8c-0.4,0.9-1,1.8-1.9,2.3
					c0.2-1,0.2-1.9,0.4-2.8c0.1-0.9,0.2-1.8,0.4-2.7c0.2-0.9,0.4-1.8,0.6-2.7C68.3,74.6,68.5,73.7,69,72.8z"/>
				<path class="st3" d="M48.6,95.1c1-0.4,2-0.6,2.9-0.8c1-0.2,1.9-0.3,2.9-0.3c1-0.1,1.9-0.1,2.9-0.1c1,0,1.9,0.1,3,0.2
					c-0.8,0.7-1.8,1.2-2.7,1.5c-1,0.3-2,0.5-3,0.5c-1,0.1-2,0-3-0.1C50.6,95.8,49.6,95.6,48.6,95.1z"/>
				<path class="st3" d="M29.4,54.3c0.3-0.4,0.6-0.6,0.9-0.7c0.3-0.1,0.6-0.1,0.8-0.1c0.3,0,0.5,0.1,0.8,0.3
					c0.2,0.2,0.5,0.5,0.7,0.9c-0.3,0.4-0.6,0.6-0.9,0.7c-0.3,0.1-0.6,0.1-0.8,0.1c-0.3,0-0.5-0.1-0.8-0.3
					C29.8,55,29.6,54.8,29.4,54.3z"/>
				<path class="st3" d="M37.7,42.1c0.4,0.2,0.7,0.4,0.9,0.6c0.2,0.2,0.3,0.4,0.3,0.7c0,0.2,0,0.5-0.2,0.7c-0.1,0.2-0.4,0.5-0.8,0.7
					c-0.4-0.2-0.7-0.4-0.9-0.6c-0.2-0.2-0.3-0.4-0.3-0.7c0-0.2,0-0.5,0.2-0.7C37.1,42.6,37.3,42.4,37.7,42.1z"/>
				<path class="st3" d="M16.5,10.5c3,8.7,7,16.9,11.6,24.9c1.2,2,2.3,4,3.5,5.9c1.2,2,2.4,3.9,3.6,5.8l1.8,2.9
					c0.6,1,1.3,1.9,1.9,2.9c1.3,1.9,2.5,3.8,3.8,5.7c2.6,3.8,5.2,7.5,7.9,11.3l4,5.6c1.4,1.8,2.7,3.7,4.1,5.5
					c5.5,7.4,11,14.7,16.5,22c-6.2-6.8-12.1-13.8-17.8-21c-1.4-1.8-2.8-3.6-4.2-5.4l-4.2-5.5c-2.7-3.7-5.4-7.4-8-11.3
					c-1.3-1.9-2.6-3.8-3.8-5.8c-1.3-1.9-2.5-3.9-3.7-5.8c-1.2-2-2.4-4-3.5-5.9c-1.2-2-2.2-4-3.3-6.1C22.3,28,18.6,19.4,16.5,10.5z"
					/>
			</g>
		</g>
		<g>
			<g>
				<path class="st3" d="M106,67.3c2.1,0,4.1,0,6.2,0c2.1,0,4.2,0,6.2,0.1c2,0.1,4,0.2,5.9,0.3l-0.2,4.3H107c-1.3,0-2.2,0.3-2.8,1
					c-0.6,0.6-0.9,1.7-0.9,3.1v25.4c0,1.4,0.3,2.5,0.9,3.2c0.6,0.7,1.5,1,2.8,1h17.2l0.2,4.2c-1.9,0.1-3.9,0.2-5.9,0.2
					c-2,0-4.1,0.1-6.2,0.1c-2.1,0-4.2,0-6.2,0c-2.5,0-4.5-0.7-6-2c-1.5-1.3-2.2-3.1-2.3-5.4v-28c0-2.3,0.8-4.1,2.3-5.5
					C101.5,68,103.5,67.3,106,67.3z M98.9,85.4h22.8v4.4H98.9V85.4z"/>
				<path class="st3" d="M145.2,79.2c0.9,0,1.9,0,3,0.1c1.1,0.1,2.3,0.2,3.4,0.4c1.2,0.2,2.3,0.5,3.3,0.9l-0.7,3.4
					c-1.4-0.1-2.8-0.2-4.3-0.3c-1.5-0.1-2.8-0.1-3.9-0.1c-2.4,0-4.3,0.3-5.7,1c-1.4,0.7-2.4,1.8-3,3.5c-0.6,1.7-0.9,3.9-0.9,6.9
					c0,2.9,0.3,5.2,0.9,6.9c0.6,1.7,1.6,2.8,3,3.5c1.4,0.7,3.3,1,5.7,1c0.6,0,1.4,0,2.4-0.1c1,0,2.1-0.1,3.2-0.2
					c1.1-0.1,2.2-0.2,3.3-0.4l0.6,3.5c-1.5,0.5-3.2,0.9-5,1.2c-1.8,0.2-3.6,0.4-5.4,0.4c-3.5,0-6.3-0.5-8.4-1.5
					c-2.1-1-3.6-2.7-4.6-5c-0.9-2.3-1.4-5.4-1.4-9.3c0-3.9,0.5-7,1.4-9.3c0.9-2.3,2.5-4,4.6-5C138.9,79.7,141.7,79.2,145.2,79.2z"/>
				<path class="st3" d="M174.9,79.2c3.5,0,6.2,0.5,8.3,1.5c2.1,1,3.6,2.7,4.5,5c0.9,2.3,1.4,5.4,1.4,9.3c0,3.8-0.5,6.9-1.4,9.3
					c-0.9,2.3-2.4,4-4.5,5c-2.1,1-4.9,1.5-8.3,1.5c-3.4,0-6.2-0.5-8.3-1.5c-2.1-1-3.6-2.7-4.5-5c-0.9-2.3-1.4-5.4-1.4-9.3
					c0-3.8,0.5-6.9,1.4-9.3c0.9-2.3,2.4-4,4.5-5C168.7,79.7,171.5,79.2,174.9,79.2z M174.9,83.7c-2.2,0-3.9,0.3-5.2,1
					c-1.3,0.7-2.2,1.8-2.7,3.5c-0.5,1.7-0.8,3.9-0.8,6.9c0,2.9,0.3,5.2,0.8,6.9c0.5,1.7,1.4,2.8,2.7,3.5c1.3,0.7,3,1,5.2,1
					c2.2,0,3.9-0.3,5.2-1c1.3-0.7,2.2-1.8,2.7-3.5c0.5-1.7,0.8-3.9,0.8-6.9c0-2.9-0.3-5.2-0.8-6.9c-0.5-1.7-1.4-2.8-2.7-3.5
					C178.8,84,177.1,83.7,174.9,83.7z"/>
				<path class="st13" d="M202.6,66.8l-0.1,35.1c0,1.3,0.4,2.3,1.1,3c0.7,0.7,1.7,1,3.1,1h2.9l0.6,4c-0.4,0.2-0.9,0.3-1.6,0.4
					c-0.7,0.1-1.4,0.2-2.1,0.3c-0.7,0.1-1.3,0.1-1.8,0.1c-2.2,0-4-0.7-5.4-2c-1.3-1.3-2-3.2-2-5.7V66.8H202.6z"/>
				<path class="st13" d="M219.8,67.1c1.1,0,1.6,0.5,1.6,1.6v3.5c0,1.1-0.5,1.6-1.6,1.6h-2.5c-1.1,0-1.6-0.5-1.6-1.6v-3.5
					c0-1.1,0.5-1.6,1.6-1.6H219.8z M221.2,80v30.2H216V80H221.2z"/>
				<path class="st13" d="M235.5,80l0.4,5.8l0.4,0.9v23.5h-5.3V80H235.5z M249.4,79.2c5.5,0,8.2,2.8,8.2,8.3v22.6h-5.3V89
					c0-2-0.3-3.4-1-4.2c-0.7-0.8-1.8-1.1-3.3-1.1c-1.9,0-3.7,0.5-5.6,1.4c-1.9,0.9-4.1,2.1-6.6,3.7l-0.2-3.8c2.4-1.8,4.7-3.2,7-4.2
					C244.9,79.7,247.1,79.2,249.4,79.2z"/>
				<path class="st13" d="M272.3,66.8l0.1,19.3c0,1.3-0.1,2.5-0.2,3.6c-0.1,1.1-0.3,2.2-0.5,3.4c0.2,1.2,0.4,2.3,0.4,3.5
					c0.1,1.2,0.1,2.3,0.1,3.3v10.3h-5.3V66.8H272.3z M277.5,91.2V95h-7v-3.8H277.5z M291.7,80l-9.5,11.1c-0.3,0.4-0.6,0.8-1.1,1.1
					c-0.4,0.4-0.8,0.7-1.1,0.9v0.1c0.3,0.2,0.6,0.5,1.1,1c0.4,0.5,0.8,0.9,1.1,1.4l10.5,14.5h-6.1l-12-17.3l11-12.9H291.7z"/>
			</g>
		</g>
	</g>
</g>
</svg>
