<?xml version="1.0" encoding="utf-8"?>
<!-- Generator: Adobe Illustrator 25.2.1, SVG Export Plug-In . SVG Version: 6.00 Build 0)  -->
<svg version="1.1" xmlns="http://www.w3.org/2000/svg" xmlns:xlink="http://www.w3.org/1999/xlink" x="0px" y="0px"
	 viewBox="0 0 150 150" style="enable-background:new 0 0 150 150;" xml:space="preserve">
<style type="text/css">
	.st0{fill:#F7F6F5;}
	.st1{display:none;}
	.st2{display:inline;fill-rule:evenodd;clip-rule:evenodd;}
	.st3{display:inline;}
	.st4{fill:#FFFFFF;}
	.st5{display:inline;fill-rule:evenodd;clip-rule:evenodd;fill:#29ABE2;}
	.st6{fill:#010201;}
	.st7{fill-rule:evenodd;clip-rule:evenodd;fill:#FFFFFF;}
	.st8{fill-rule:evenodd;clip-rule:evenodd;fill:#010201;}
	.st9{fill:#FEFEFE;}
	.st10{fill-rule:evenodd;clip-rule:evenodd;}
	.st11{fill:url(#SVGID_1_);}
	.st12{fill:#29ABE2;}
	.st13{fill:#6C95AB;}
	.st14{fill:#77AD5B;}
	.st15{fill:#F2F2F2;}
	.st16{fill:#D49AF7;}
	.st17{fill:#282800;}
</style>
<g id="Background">
</g>
<g id="Graphic_Elements">
	<g class="st1">
		<circle class="st2" cx="75" cy="-287.3" r="578.7"/>
	</g>
	<g class="st1">
		<circle class="st5" cx="75" cy="-287.3" r="578.7"/>
	</g>
	<g>
		<path class="st17" d="M77.3,36.8c-20.8,0-37.8,16.9-37.8,37.7c0,7.1,2,14.1,5.8,20.1l0.9,1.4L42.4,110l14.3-3.7l1.4,0.8
			c5.8,3.4,12.4,5.3,19.2,5.3h0c20.8,0,37.7-16.9,37.7-37.7c0-10.1-3.9-19.6-11-26.7C96.9,40.8,87.4,36.9,77.3,36.8z M99.5,90.8
			c-0.9,2.6-5.5,5.1-7.7,5.4c-2,0.3-4.4,0.4-7.1-0.4c-1.6-0.5-3.8-1.2-6.5-2.4C66.9,88.4,59.4,77,58.9,76.2
			c-0.6-0.8-4.6-6.2-4.6-11.7c0-5.6,2.9-8.3,4-9.5c1-1.1,2.3-1.4,3-1.4c0.8,0,1.5,0,2.2,0c0.7,0,1.6-0.3,2.6,1.9
			c0.9,2.3,3.2,7.9,3.5,8.4c0.3,0.6,0.5,1.2,0.1,2c-0.4,0.8-0.6,1.2-1.1,1.9c-0.6,0.7-1.2,1.5-1.7,2c-0.6,0.6-1.2,1.2-0.5,2.3
			c0.7,1.1,2.9,4.9,6.3,7.9c4.3,3.9,8,5.1,9.1,5.6c1.1,0.6,1.8,0.5,2.5-0.3c0.7-0.8,2.8-3.3,3.6-4.4c0.8-1.1,1.5-0.9,2.6-0.6
			c1,0.4,6.6,3.1,7.8,3.7c1.1,0.6,1.9,0.9,2.2,1.3C100.5,85.9,100.5,88.2,99.5,90.8z"/>
		<path class="st17" d="M75,4.5C35.5,4.5,3.4,36.5,3.4,76.1s32.1,71.6,71.6,71.6c39.5,0,71.6-32.1,71.6-71.6S114.5,4.5,75,4.5z
			 M77.3,120C77.3,120,77.3,120,77.3,120L77.3,120c-7.6,0-15.1-1.9-21.7-5.5l-24.1,6.3L38,97.3c-4-6.9-6.1-14.7-6.1-22.7
			c0-25,20.4-45.4,45.4-45.4c12.1,0,23.6,4.7,32.1,13.3c8.6,8.6,13.3,20,13.3,32.1C122.7,99.6,102.3,120,77.3,120z"/>
	</g>
</g>
</svg>
