<?xml version="1.0" encoding="utf-8"?>
<!-- Generator: Adobe Illustrator 25.2.1, SVG Export Plug-In . SVG Version: 6.00 Build 0)  -->
<svg version="1.1" xmlns="http://www.w3.org/2000/svg" xmlns:xlink="http://www.w3.org/1999/xlink" x="0px" y="0px"
	 viewBox="0 0 150 150" style="enable-background:new 0 0 150 150;" xml:space="preserve">
<style type="text/css">
	.st0{fill:#F7F6F5;}
	.st1{display:none;}
	.st2{display:inline;fill-rule:evenodd;clip-rule:evenodd;}
	.st3{display:inline;}
	.st4{fill:#FFFFFF;}
	.st5{display:inline;fill-rule:evenodd;clip-rule:evenodd;fill:#29ABE2;}
	.st6{fill:#010201;}
	.st7{fill-rule:evenodd;clip-rule:evenodd;fill:#FFFFFF;}
	.st8{fill-rule:evenodd;clip-rule:evenodd;fill:#010201;}
	.st9{fill:#FEFEFE;}
	.st10{fill-rule:evenodd;clip-rule:evenodd;}
	.st11{fill:url(#SVGID_1_);}
	.st12{fill:#29ABE2;}
	.st13{fill:#6C95AB;}
	.st14{fill:#77AD5B;}
	.st15{fill:#F2F2F2;}
	.st16{fill:#D49AF7;}
	.st17{fill:#282800;}
</style>
<g id="Background">
</g>
<g id="Graphic_Elements">
	<g class="st1">
		<circle class="st2" cx="75" cy="-105.4" r="578.7"/>
		<g class="st3">
			<g>
				<g>
					<path class="st4" d="M-82.1-352.5c23.2,0,44.2,2,63.3,6.2c19,4,35.3,10.8,49,20c13.5,9.2,24.1,21.5,31.7,37
						C69.3-274.1,73-255,73-232.4c0,24.4-5.5,44.8-16.6,61.1c-11.2,16.3-27.6,29.6-49.5,40c29.9,8.6,52,23.7,66.6,45.2
						C88.2-64.4,95.5-38.6,95.5-8.2c0,24.6-4.7,45.8-14.1,63.6C71.8,73.4,58.9,88,43,99.3C26.9,110.7,8.4,119-12.2,124.5
						c-20.4,5.4-41.7,8.2-63.4,8.2h-235.2v-485.2H-82.1z M-95.9-156.5c18.9,0,34.6-4.5,47-13.6c12.3-9,18.2-23.8,18.2-44.1
						c0-11.3-2-20.6-6-27.8c-4.1-7.3-9.6-12.9-16.5-16.9c-6.8-4.1-14.6-7-23.5-8.5c-8.8-1.7-18-2.4-27.5-2.4H-204v113.4H-95.9z
						 M-90,50c10.5,0,20.5-0.9,30-3.1c9.6-2.1,18-5.4,25.2-10.3c7.1-4.7,13.1-11.2,17.4-19.4c4.3-8.1,6.4-18.7,6.4-31.4
						c0-25-7-42.7-21-53.5c-14-10.6-32.7-15.9-55.7-15.9H-204V50H-90z"/>
					<path class="st4" d="M247.7,48.4c14.4,14.1,35.3,21.2,62.4,21.2c19.5,0,36.3-4.9,50.4-14.7c14-9.8,22.5-20.3,25.8-31.1h85
						c-13.7,42.3-34.4,72.5-62.6,90.6c-27.9,18.2-62,27.3-101.7,27.3c-27.7,0-52.6-4.5-74.9-13.3c-22.3-8.9-41-21.4-56.7-37.8
						c-15.3-16.4-27.2-35.8-35.7-58.5C131.2,9.5,127-15.6,127-42.8c0-26.3,4.4-50.8,13-73.5c8.8-22.7,20.9-42.4,36.8-58.9
						c16-16.6,34.9-29.6,56.9-39.2c22-9.5,46.3-14.3,73.3-14.3c29.7,0,55.8,5.7,78.1,17.4c22.2,11.5,40.5,27.1,54.8,46.6
						c14.3,19.4,24.5,41.7,30.9,66.7c6.3,24.9,8.5,51,6.7,78.2H223.8C223.8,8,233.2,34.3,247.7,48.4z M358.6-136.2
						c-11.5-12.7-30.9-19.6-54.6-19.6c-15.4,0-28.2,2.6-38.4,7.9c-10,5.2-18.2,11.7-24.4,19.4c-6.2,7.8-10.5,16-12.9,24.8
						c-2.5,8.5-4,16.3-4.4,23.1h157C378.5-105.2,370.1-123.4,358.6-136.2z"/>
				</g>
			</g>
		</g>
	</g>
	<g class="st1">
		<circle class="st5" cx="75" cy="-105.4" r="578.7"/>
		<g class="st3">
			<g>
				<g>
					<path class="st4" d="M-82.1-352.5c23.2,0,44.2,2,63.3,6.2c19,4,35.3,10.8,49,20c13.5,9.2,24.1,21.5,31.7,37
						C69.3-274.1,73-255,73-232.4c0,24.4-5.5,44.8-16.6,61.1c-11.2,16.3-27.6,29.6-49.5,40c29.9,8.6,52,23.7,66.6,45.2
						C88.2-64.4,95.5-38.6,95.5-8.2c0,24.6-4.7,45.8-14.1,63.6C71.8,73.4,58.9,88,43,99.3C26.9,110.7,8.4,119-12.2,124.5
						c-20.4,5.4-41.7,8.2-63.4,8.2h-235.2v-485.2H-82.1z M-95.9-156.5c18.9,0,34.6-4.5,47-13.6c12.3-9,18.2-23.8,18.2-44.1
						c0-11.3-2-20.6-6-27.8c-4.1-7.3-9.6-12.9-16.5-16.9c-6.8-4.1-14.6-7-23.5-8.5c-8.8-1.7-18-2.4-27.5-2.4H-204v113.4H-95.9z
						 M-90,50c10.5,0,20.5-0.9,30-3.1c9.6-2.1,18-5.4,25.2-10.3c7.1-4.7,13.1-11.2,17.4-19.4c4.3-8.1,6.4-18.7,6.4-31.4
						c0-25-7-42.7-21-53.5c-14-10.6-32.7-15.9-55.7-15.9H-204V50H-90z"/>
					<path class="st4" d="M247.7,48.4c14.4,14.1,35.3,21.2,62.4,21.2c19.5,0,36.3-4.9,50.4-14.7c14-9.8,22.5-20.3,25.8-31.1h85
						c-13.7,42.3-34.4,72.5-62.6,90.6c-27.9,18.2-62,27.3-101.7,27.3c-27.7,0-52.6-4.5-74.9-13.3c-22.3-8.9-41-21.4-56.7-37.8
						c-15.3-16.4-27.2-35.8-35.7-58.5C131.2,9.5,127-15.6,127-42.8c0-26.3,4.4-50.8,13-73.5c8.8-22.7,20.9-42.4,36.8-58.9
						c16-16.6,34.9-29.6,56.9-39.2c22-9.5,46.3-14.3,73.3-14.3c29.7,0,55.8,5.7,78.1,17.4c22.2,11.5,40.5,27.1,54.8,46.6
						c14.3,19.4,24.5,41.7,30.9,66.7c6.3,24.9,8.5,51,6.7,78.2H223.8C223.8,8,233.2,34.3,247.7,48.4z M358.6-136.2
						c-11.5-12.7-30.9-19.6-54.6-19.6c-15.4,0-28.2,2.6-38.4,7.9c-10,5.2-18.2,11.7-24.4,19.4c-6.2,7.8-10.5,16-12.9,24.8
						c-2.5,8.5-4,16.3-4.4,23.1h157C378.5-105.2,370.1-123.4,358.6-136.2z"/>
				</g>
			</g>
		</g>
	</g>
	<g>
		<path class="st14" d="M75,4.5C35.5,4.5,3.4,36.5,3.4,76.1s32.1,71.6,71.6,71.6s71.6-32.1,71.6-71.6S114.5,4.5,75,4.5z M77.3,120
			C77.3,120,77.3,120,77.3,120L77.3,120c-7.6,0-15.1-1.9-21.7-5.5l-24.1,6.3L38,97.3c-4-6.9-6.1-14.7-6.1-22.7
			c0-25,20.4-45.4,45.4-45.4c12.1,0,23.6,4.7,32.1,13.3c8.6,8.6,13.3,20,13.3,32.1C122.7,99.6,102.3,120,77.3,120z"/>
		<path class="st14" d="M77.3,36.8c-20.8,0-37.8,16.9-37.8,37.7c0,7.1,2,14.1,5.8,20.1l0.9,1.4L42.4,110l14.3-3.7l1.4,0.8
			c5.8,3.4,12.4,5.3,19.2,5.3h0c20.8,0,37.7-16.9,37.7-37.7c0-10.1-3.9-19.6-11-26.7C96.9,40.8,87.4,36.9,77.3,36.8z M99.5,90.8
			c-0.9,2.6-5.5,5.1-7.7,5.4c-2,0.3-4.4,0.4-7.1-0.4c-1.6-0.5-3.8-1.2-6.5-2.4C66.9,88.4,59.4,77,58.9,76.2
			c-0.6-0.8-4.6-6.2-4.6-11.7c0-5.6,2.9-8.3,4-9.5c1-1.1,2.3-1.4,3-1.4c0.8,0,1.5,0,2.2,0c0.7,0,1.6-0.3,2.6,1.9
			c0.9,2.3,3.2,7.9,3.5,8.4c0.3,0.6,0.5,1.2,0.1,2c-0.4,0.8-0.6,1.2-1.1,1.9c-0.6,0.7-1.2,1.5-1.7,2c-0.6,0.6-1.2,1.2-0.5,2.3
			c0.7,1.1,2.9,4.9,6.3,7.9c4.3,3.9,8,5.1,9.1,5.6c1.1,0.6,1.8,0.5,2.5-0.3c0.7-0.8,2.8-3.3,3.6-4.4c0.8-1.1,1.5-0.9,2.6-0.6
			c1,0.4,6.6,3.1,7.8,3.7c1.1,0.6,1.9,0.9,2.2,1.3C100.5,85.9,100.5,88.2,99.5,90.8z"/>
	</g>
</g>
</svg>
